<?xml version="1.0" encoding="utf-8"?>
<svg xmlns="http://www.w3.org/2000/svg" viewBox="-466.365 -447.931 1074 1074" width="300px" height="300px" xmlns:bx="https://boxy-svg.com"><defs><bx:export><bx:file format="png" path="apple-touch-icon.png" width="180" height="180" background="#fff"/><bx:file format="png" path="favicon-32x32.png" width="32" height="32" background="#fff"/><bx:file format="png" path="favicon-16x16.png" width="16" height="16" background="#fff"/><bx:file format="svg" path="safari-pinned-tab.svg" width="300" height="300" normalization="{&quot;removeBoxySVGMetadata&quot;:true}"/><bx:file format="png" path="android-chrome-192x192.png" width="192" height="192"/><bx:file format="png" path="android-chrome-256x256.png" width="256" height="256"/><bx:file format="png" path="mstile-150x150.png" width="150" height="150"/></bx:export></defs><g transform="matrix(1, 0, 0, 1, -457.36499, -439.931)"><path d="M 321 164 L 696 165 L 320 166 L 319 216 L 318 167 L 321 164 Z " style="fill: #003c02; stroke: #003c02; stroke-width: 3px;"/><path d="M 223 216 L 224 265 L 222 265 L 223 216 Z " style="fill: #003c02; stroke: #003c02; stroke-width: 3px;"/><path d="M 697 216 L 698 265 L 696 265 L 697 216 Z " style="fill: #003c02; stroke: #003c02; stroke-width: 3px;"/><path d="M 791 268 L 792 726 L 886 727 L 793 728 L 790 725 L 791 268 Z " style="fill: #003c02; stroke: #003c02; stroke-width: 3px;"/><path d="M 319 370 L 320 470 L 412 471 L 318 472 L 319 370 Z " style="fill: #003c02; stroke: #003c02; stroke-width: 3px;"/><path d="M 603 370 L 604 470 L 696 471 L 602 472 L 603 370 Z " style="fill: #003c02; stroke: #003c02; stroke-width: 3px;"/><path d="M 319 574 L 320 623 L 318 623 L 319 574 Z " style="fill: #003c02; stroke: #003c02; stroke-width: 3px;"/><path d="M 603 574 L 604 623 L 602 623 L 603 574 Z " style="fill: #003c02; stroke: #003c02; stroke-width: 3px;"/><path d="M 413 626 L 414 675 L 412 675 L 413 626 Z " style="fill: #003c02; stroke: #003c02; stroke-width: 3px;"/><path d="M 131 726 L 221 726 L 224 729 L 223 778 L 222 728 L 131 728 L 131 726 Z " style="fill: #003c02; stroke: #003c02; stroke-width: 3px;"/><path d="M 697 728 L 698 777 L 695 780 L 320 780 L 320 827 L 321 828 L 695 828 L 695 830 L 319 830 L 318 829 L 318 778 L 695 778 L 696 777 L 697 728 Z " style="fill: #003c02; stroke: #003c02; stroke-width: 3px;"/><path d="M 99 96 L 925 96 L 928 99 L 928 925 L 925 928 L 99 928 L 96 925 L 96 99 L 99 96 Z M 98 98 L 98 926 L 926 926 L 926 98 L 98 98 Z " style="fill: #007e04; stroke: #007e04; stroke-width: 3px;"/><path d="M 697 164 L 698 215 L 696 215 L 697 164 Z " style="fill: #007e04; stroke: #007e04; stroke-width: 3px;"/><path d="M 319 216 L 320 265 L 317 268 L 224 268 L 224 725 L 225 726 L 317 726 L 320 729 L 320 777 L 317 780 L 223 780 L 223 778 L 318 778 L 318 728 L 222 728 L 222 269 L 221 268 L 129 268 L 129 266 L 317 266 L 318 265 L 319 216 Z " style="fill: #007e04; stroke: #007e04; stroke-width: 3px;"/><path d="M 791 216 L 792 266 L 885 266 L 888 269 L 887 728 L 886 268 L 696 267 L 790 266 L 791 216 Z " style="fill: #007e04; stroke: #007e04; stroke-width: 3px;"/><path d="M 319 368 L 411 368 L 414 371 L 413 472 L 412 370 L 319 370 L 319 368 Z " style="fill: #007e04; stroke: #007e04; stroke-width: 3px;"/><path d="M 603 368 L 695 368 L 698 371 L 697 472 L 696 370 L 603 370 L 603 368 Z " style="fill: #007e04; stroke: #007e04; stroke-width: 3px;"/><path d="M 413 574 L 414 624 L 695 624 L 696 623 L 696 575 L 698 575 L 698 623 L 695 626 L 604 626 L 604 675 L 602 675 L 602 627 L 601 626 L 319 626 L 319 624 L 412 624 L 413 574 Z " style="fill: #007e04; stroke: #007e04; stroke-width: 3px;"/><path d="M 697 726 L 792 726 L 792 777 L 789 780 L 698 780 L 697 830 L 696 778 L 790 778 L 790 728 L 697 728 L 697 726 Z " style="fill: #007e04; stroke: #007e04; stroke-width: 3px;"/><path d="M 82 82 L 940 83 L 84 84 L 83 940 L 82 82 Z " style="fill: #b1b1b1; stroke: #b1b1b1; stroke-width: 3px;"/><path d="M 940 128 L 985 128 L 986 129 L 986 983 L 983 986 L 128 986 L 128 941 L 129 940 L 940 940 L 940 128 Z " style="fill: #b1b1b1; stroke: #b1b1b1; stroke-width: 3px;"/><path d="M 98 98 L 926 98 L 926 926 L 98 926 L 98 98 Z M 318 164 L 318 216 L 223 216 L 222 217 L 222 266 L 128 266 L 128 728 L 222 728 L 222 780 L 318 780 L 318 830 L 697 830 L 698 829 L 698 780 L 789 780 L 792 777 L 792 728 L 888 728 L 888 269 L 885 266 L 793 266 L 792 265 L 792 216 L 698 216 L 698 165 L 697 164 L 318 164 Z " style="fill: #00da07; stroke: #00da07; stroke-width: 3px;"/><path d="M 320 216 L 695 216 L 696 217 L 696 268 L 790 268 L 790 726 L 696 726 L 696 777 L 695 778 L 320 778 L 320 729 L 317 726 L 225 726 L 224 725 L 224 268 L 317 268 L 320 265 L 320 216 Z M 318 368 L 318 472 L 414 472 L 414 371 L 411 368 L 318 368 Z M 602 368 L 602 472 L 698 472 L 698 371 L 695 368 L 602 368 Z M 318 574 L 318 626 L 412 626 L 412 676 L 603 676 L 604 675 L 604 626 L 695 626 L 698 623 L 698 574 L 602 574 L 602 624 L 415 624 L 414 623 L 414 574 L 318 574 Z " style="fill: #00da07; stroke: #00da07; stroke-width: 3px;"/><path d="M 0 0 L 1024 0 L 1024 1024 L 0 1024 L 0 0 Z M 82 82 L 82 939 L 83 940 L 128 940 L 128 986 L 983 986 L 986 983 L 986 129 L 985 128 L 940 128 L 940 82 L 82 82 Z " style="fill: #fff; stroke: #fff; stroke-width: 3px;"/><path d="M 84 84 L 940 84 L 940 940 L 84 940 L 84 84 Z M 96 96 L 96 928 L 928 928 L 928 96 L 96 96 Z " style="fill: #000; stroke: #000; stroke-width: 3px;"/><path d="M 320 166 L 695 166 L 696 167 L 696 216 L 321 216 L 320 215 L 320 166 Z " style="fill: #000; stroke: #000; stroke-width: 3px;"/><path d="M 224 216 L 318 216 L 318 266 L 224 266 L 224 216 Z " style="fill: #000; stroke: #000; stroke-width: 3px;"/><path d="M 698 216 L 790 216 L 790 266 L 698 266 L 698 216 Z " style="fill: #000; stroke: #000; stroke-width: 3px;"/><path d="M 128 268 L 221 268 L 222 269 L 222 726 L 129 726 L 128 725 L 128 268 Z " style="fill: #000; stroke: #000; stroke-width: 3px;"/><path d="M 792 268 L 885 268 L 886 269 L 886 726 L 793 726 L 792 725 L 792 268 Z " style="fill: #000; stroke: #000; stroke-width: 3px;"/><path d="M 320 370 L 412 370 L 412 470 L 320 470 L 320 370 Z " style="fill: #000; stroke: #000; stroke-width: 3px;"/><path d="M 604 370 L 696 370 L 696 470 L 604 470 L 604 370 Z " style="fill: #000; stroke: #000; stroke-width: 3px;"/><path d="M 320 574 L 412 574 L 412 624 L 320 624 L 320 574 Z " style="fill: #000; stroke: #000; stroke-width: 3px;"/><path d="M 604 574 L 696 574 L 696 624 L 604 624 L 604 574 Z " style="fill: #000; stroke: #000; stroke-width: 3px;"/><path d="M 414 626 L 601 626 L 602 627 L 602 676 L 415 676 L 414 675 L 414 626 Z " style="fill: #000; stroke: #000; stroke-width: 3px;"/><path d="M 224 728 L 318 728 L 318 778 L 224 778 L 224 728 Z " style="fill: #000; stroke: #000; stroke-width: 3px;"/><path d="M 698 728 L 790 728 L 790 778 L 698 778 L 698 728 Z " style="fill: #000; stroke: #000; stroke-width: 3px;"/><path d="M 320 780 L 695 780 L 696 781 L 696 828 L 321 828 L 320 827 L 320 780 Z " style="fill: #000; stroke: #000; stroke-width: 3px;"/></g></svg>